<?xml version="1.0" encoding="UTF-8"?>
<svg id="Layer_1" data-name="Layer 1" xmlns="http://www.w3.org/2000/svg" viewBox="0 0 468.91 481.15">
  <defs>
    <style>
      .cls-1 {
        fill: #fff;
      }
    </style>
  </defs>
  <path d="M170.78,251.79v61.8l24.72,33.71v132.97c-11.43-.92-23.01,2.31-34.28-.17l-19.65-34.66v-91.39l-1.12-1.12h-14.61v92.51l-18.85,34.71c-5.02-.23-11.15.73-16.03.17-1.08-.13-1.97-.07-2.5-1.24l-18.05-35.88v-90.27h-14.98v91.02l-20.22,35.97-35.21.37v-131.47l24.72-33.71v-62.18l1.12-1.12h46.44l24.02,34.4,2.12,1.53,25.54-35.93h46.82Z"/>
  <path d="M313.85.84l65.8.12,38.74,89.73c2,2.83,6.89,1.11,10.07,1.54L403.76,1.21,468.91.09v231.47h-65.17l-37.08-92.9c-1.1-1.4-6.55.91-8.98-.75l22.83,93.65h-66.67V.84Z"/>
  <path d="M137.08,231.57H61.42v-103.75L14.98,76.88V.09c17.52,1.27,35.11.48,52.69.87l31.58,40.32L130.08.96c13.93-.57,27.93.32,41.86-.09,1.7-.05,11.58-2.15,11.58.34v74.91l-46.44,50.94v104.5Z"/>
  <path d="M468.91,251.79v79.4h-81.65v84.65h40.07c.12,0,1.87,1.29,1.87-.37v-14.98c0-.82-1.83-1.07-2.58-1.16-7.42-.87-15.44,1.21-22.88.79v-52.44h65.17v133.34l-123.59-.75v-173.42l42.32-55.06h81.27Z"/>
  <g>
    <path d="M297.37,251.79v66.3l31.46,38.2v123.98l-42.16-.16c-2.44-1.28-8.88-15.55-10.89-19.07-.8-1.41-5.05-9.04-5.76-9.23l-15.85,28.52c-3.22,1.67-6.29-.09-9.58-.09-7.11-.02-14.04.37-21.14.32-2.7-.02-10.43,1.91-11.86-1.03l-.21-122.32c9.37-13.52,21.16-25.36,31.3-38.36v-67.04h54.68Z"/>
    <polygon class="cls-1" points="286.14 386.63 254.68 386.63 270.03 357.43 286.14 386.63"/>
  </g>
  <g>
    <polygon points="293.63 231.57 158.05 231.57 158.05 134.56 203.74 85.12 203.74 .84 293.63 1.22 293.63 231.57"/>
    <path class="cls-1" d="M243.44,116.2v45.32c0,1.69-11.94,1.21-13.89,1.15-5.97-.17-11.88-.92-17.98-.81-2.26.04-4.72,1.86-6.32-.34l38.18-45.33Z"/>
  </g>
</svg>